M48
; DRILL file {KiCad 8.0.8} date 2025-02-10T02:06:25-0800
; FORMAT={-:-/ absolute / inch / decimal}
; #@! TF.CreationDate,2025-02-10T02:06:25-08:00
; #@! TF.GenerationSoftware,Kicad,Pcbnew,8.0.8
; #@! TF.FileFunction,Plated,1,2,PTH
FMAT,2
INCH
; #@! TA.AperFunction,Plated,PTH,ComponentDrill
T1C0.0394
%
G90
G05
T1
X4.0157Y-2.0457
X4.0157Y-2.1457
X4.0157Y-2.2457
X4.0157Y-2.3457
X4.0157Y-2.6346
X4.0157Y-2.7346
X4.0157Y-2.8346
X4.0157Y-2.9346
X4.0157Y-3.2661
X4.0157Y-3.3661
X4.0157Y-3.4661
X4.0157Y-3.5661
X5.7874Y-2.0457
X5.7874Y-2.1457
X5.7874Y-2.2457
X5.7874Y-2.3457
X5.7874Y-2.4457
X5.7874Y-2.5457
X5.7874Y-2.9419
X5.7874Y-3.0419
M30
