%TF.GenerationSoftware,KiCad,Pcbnew,8.0.8*%
%TF.CreationDate,2025-02-10T02:06:15-08:00*%
%TF.ProjectId,514_FinalProject,3531345f-4669-46e6-916c-50726f6a6563,rev?*%
%TF.SameCoordinates,Original*%
%TF.FileFunction,Legend,Top*%
%TF.FilePolarity,Positive*%
%FSLAX46Y46*%
G04 Gerber Fmt 4.6, Leading zero omitted, Abs format (unit mm)*
G04 Created by KiCad (PCBNEW 8.0.8) date 2025-02-10 02:06:15*
%MOMM*%
%LPD*%
G01*
G04 APERTURE LIST*
%ADD10C,0.100000*%
%ADD11C,0.150000*%
%ADD12C,0.120000*%
G04 APERTURE END LIST*
D10*
X139756265Y-95586704D02*
X140232455Y-95586704D01*
X139661027Y-95872419D02*
X139994360Y-94872419D01*
X139994360Y-94872419D02*
X140327693Y-95872419D01*
X141089598Y-95872419D02*
X141089598Y-94872419D01*
X141089598Y-95824800D02*
X140994360Y-95872419D01*
X140994360Y-95872419D02*
X140803884Y-95872419D01*
X140803884Y-95872419D02*
X140708646Y-95824800D01*
X140708646Y-95824800D02*
X140661027Y-95777180D01*
X140661027Y-95777180D02*
X140613408Y-95681942D01*
X140613408Y-95681942D02*
X140613408Y-95396228D01*
X140613408Y-95396228D02*
X140661027Y-95300990D01*
X140661027Y-95300990D02*
X140708646Y-95253371D01*
X140708646Y-95253371D02*
X140803884Y-95205752D01*
X140803884Y-95205752D02*
X140994360Y-95205752D01*
X140994360Y-95205752D02*
X141089598Y-95253371D01*
X141946741Y-95824800D02*
X141851503Y-95872419D01*
X141851503Y-95872419D02*
X141661027Y-95872419D01*
X141661027Y-95872419D02*
X141565789Y-95824800D01*
X141565789Y-95824800D02*
X141518170Y-95729561D01*
X141518170Y-95729561D02*
X141518170Y-95348609D01*
X141518170Y-95348609D02*
X141565789Y-95253371D01*
X141565789Y-95253371D02*
X141661027Y-95205752D01*
X141661027Y-95205752D02*
X141851503Y-95205752D01*
X141851503Y-95205752D02*
X141946741Y-95253371D01*
X141946741Y-95253371D02*
X141994360Y-95348609D01*
X141994360Y-95348609D02*
X141994360Y-95443847D01*
X141994360Y-95443847D02*
X141518170Y-95539085D01*
X142565789Y-95872419D02*
X142470551Y-95824800D01*
X142470551Y-95824800D02*
X142422932Y-95729561D01*
X142422932Y-95729561D02*
X142422932Y-94872419D01*
X143327694Y-95824800D02*
X143232456Y-95872419D01*
X143232456Y-95872419D02*
X143041980Y-95872419D01*
X143041980Y-95872419D02*
X142946742Y-95824800D01*
X142946742Y-95824800D02*
X142899123Y-95729561D01*
X142899123Y-95729561D02*
X142899123Y-95348609D01*
X142899123Y-95348609D02*
X142946742Y-95253371D01*
X142946742Y-95253371D02*
X143041980Y-95205752D01*
X143041980Y-95205752D02*
X143232456Y-95205752D01*
X143232456Y-95205752D02*
X143327694Y-95253371D01*
X143327694Y-95253371D02*
X143375313Y-95348609D01*
X143375313Y-95348609D02*
X143375313Y-95443847D01*
X143375313Y-95443847D02*
X142899123Y-95539085D01*
X144470552Y-94872419D02*
X144708647Y-95872419D01*
X144708647Y-95872419D02*
X144899123Y-95158133D01*
X144899123Y-95158133D02*
X145089599Y-95872419D01*
X145089599Y-95872419D02*
X145327695Y-94872419D01*
X146137218Y-95872419D02*
X146137218Y-95348609D01*
X146137218Y-95348609D02*
X146089599Y-95253371D01*
X146089599Y-95253371D02*
X145994361Y-95205752D01*
X145994361Y-95205752D02*
X145803885Y-95205752D01*
X145803885Y-95205752D02*
X145708647Y-95253371D01*
X146137218Y-95824800D02*
X146041980Y-95872419D01*
X146041980Y-95872419D02*
X145803885Y-95872419D01*
X145803885Y-95872419D02*
X145708647Y-95824800D01*
X145708647Y-95824800D02*
X145661028Y-95729561D01*
X145661028Y-95729561D02*
X145661028Y-95634323D01*
X145661028Y-95634323D02*
X145708647Y-95539085D01*
X145708647Y-95539085D02*
X145803885Y-95491466D01*
X145803885Y-95491466D02*
X146041980Y-95491466D01*
X146041980Y-95491466D02*
X146137218Y-95443847D01*
X146613409Y-95205752D02*
X146613409Y-95872419D01*
X146613409Y-95300990D02*
X146661028Y-95253371D01*
X146661028Y-95253371D02*
X146756266Y-95205752D01*
X146756266Y-95205752D02*
X146899123Y-95205752D01*
X146899123Y-95205752D02*
X146994361Y-95253371D01*
X146994361Y-95253371D02*
X147041980Y-95348609D01*
X147041980Y-95348609D02*
X147041980Y-95872419D01*
X147946742Y-95205752D02*
X147946742Y-96015276D01*
X147946742Y-96015276D02*
X147899123Y-96110514D01*
X147899123Y-96110514D02*
X147851504Y-96158133D01*
X147851504Y-96158133D02*
X147756266Y-96205752D01*
X147756266Y-96205752D02*
X147613409Y-96205752D01*
X147613409Y-96205752D02*
X147518171Y-96158133D01*
X147946742Y-95824800D02*
X147851504Y-95872419D01*
X147851504Y-95872419D02*
X147661028Y-95872419D01*
X147661028Y-95872419D02*
X147565790Y-95824800D01*
X147565790Y-95824800D02*
X147518171Y-95777180D01*
X147518171Y-95777180D02*
X147470552Y-95681942D01*
X147470552Y-95681942D02*
X147470552Y-95396228D01*
X147470552Y-95396228D02*
X147518171Y-95300990D01*
X147518171Y-95300990D02*
X147565790Y-95253371D01*
X147565790Y-95253371D02*
X147661028Y-95205752D01*
X147661028Y-95205752D02*
X147851504Y-95205752D01*
X147851504Y-95205752D02*
X147946742Y-95253371D01*
X149089600Y-95205752D02*
X149327695Y-95872419D01*
X149327695Y-95872419D02*
X149565790Y-95205752D01*
X150470552Y-95872419D02*
X149899124Y-95872419D01*
X150184838Y-95872419D02*
X150184838Y-94872419D01*
X150184838Y-94872419D02*
X150089600Y-95015276D01*
X150089600Y-95015276D02*
X149994362Y-95110514D01*
X149994362Y-95110514D02*
X149899124Y-95158133D01*
X150899124Y-95777180D02*
X150946743Y-95824800D01*
X150946743Y-95824800D02*
X150899124Y-95872419D01*
X150899124Y-95872419D02*
X150851505Y-95824800D01*
X150851505Y-95824800D02*
X150899124Y-95777180D01*
X150899124Y-95777180D02*
X150899124Y-95872419D01*
X151565790Y-94872419D02*
X151661028Y-94872419D01*
X151661028Y-94872419D02*
X151756266Y-94920038D01*
X151756266Y-94920038D02*
X151803885Y-94967657D01*
X151803885Y-94967657D02*
X151851504Y-95062895D01*
X151851504Y-95062895D02*
X151899123Y-95253371D01*
X151899123Y-95253371D02*
X151899123Y-95491466D01*
X151899123Y-95491466D02*
X151851504Y-95681942D01*
X151851504Y-95681942D02*
X151803885Y-95777180D01*
X151803885Y-95777180D02*
X151756266Y-95824800D01*
X151756266Y-95824800D02*
X151661028Y-95872419D01*
X151661028Y-95872419D02*
X151565790Y-95872419D01*
X151565790Y-95872419D02*
X151470552Y-95824800D01*
X151470552Y-95824800D02*
X151422933Y-95777180D01*
X151422933Y-95777180D02*
X151375314Y-95681942D01*
X151375314Y-95681942D02*
X151327695Y-95491466D01*
X151327695Y-95491466D02*
X151327695Y-95253371D01*
X151327695Y-95253371D02*
X151375314Y-95062895D01*
X151375314Y-95062895D02*
X151422933Y-94967657D01*
X151422933Y-94967657D02*
X151470552Y-94920038D01*
X151470552Y-94920038D02*
X151565790Y-94872419D01*
D11*
X125400833Y-84519580D02*
X125353214Y-84567200D01*
X125353214Y-84567200D02*
X125210357Y-84614819D01*
X125210357Y-84614819D02*
X125115119Y-84614819D01*
X125115119Y-84614819D02*
X124972262Y-84567200D01*
X124972262Y-84567200D02*
X124877024Y-84471961D01*
X124877024Y-84471961D02*
X124829405Y-84376723D01*
X124829405Y-84376723D02*
X124781786Y-84186247D01*
X124781786Y-84186247D02*
X124781786Y-84043390D01*
X124781786Y-84043390D02*
X124829405Y-83852914D01*
X124829405Y-83852914D02*
X124877024Y-83757676D01*
X124877024Y-83757676D02*
X124972262Y-83662438D01*
X124972262Y-83662438D02*
X125115119Y-83614819D01*
X125115119Y-83614819D02*
X125210357Y-83614819D01*
X125210357Y-83614819D02*
X125353214Y-83662438D01*
X125353214Y-83662438D02*
X125400833Y-83710057D01*
X126257976Y-83948152D02*
X126257976Y-84614819D01*
X126019881Y-83567200D02*
X125781786Y-84281485D01*
X125781786Y-84281485D02*
X126400833Y-84281485D01*
X111333333Y-92019580D02*
X111285714Y-92067200D01*
X111285714Y-92067200D02*
X111142857Y-92114819D01*
X111142857Y-92114819D02*
X111047619Y-92114819D01*
X111047619Y-92114819D02*
X110904762Y-92067200D01*
X110904762Y-92067200D02*
X110809524Y-91971961D01*
X110809524Y-91971961D02*
X110761905Y-91876723D01*
X110761905Y-91876723D02*
X110714286Y-91686247D01*
X110714286Y-91686247D02*
X110714286Y-91543390D01*
X110714286Y-91543390D02*
X110761905Y-91352914D01*
X110761905Y-91352914D02*
X110809524Y-91257676D01*
X110809524Y-91257676D02*
X110904762Y-91162438D01*
X110904762Y-91162438D02*
X111047619Y-91114819D01*
X111047619Y-91114819D02*
X111142857Y-91114819D01*
X111142857Y-91114819D02*
X111285714Y-91162438D01*
X111285714Y-91162438D02*
X111333333Y-91210057D01*
X112285714Y-92114819D02*
X111714286Y-92114819D01*
X112000000Y-92114819D02*
X112000000Y-91114819D01*
X112000000Y-91114819D02*
X111904762Y-91257676D01*
X111904762Y-91257676D02*
X111809524Y-91352914D01*
X111809524Y-91352914D02*
X111714286Y-91400533D01*
X146666666Y-49084819D02*
X146666666Y-49799104D01*
X146666666Y-49799104D02*
X146619047Y-49941961D01*
X146619047Y-49941961D02*
X146523809Y-50037200D01*
X146523809Y-50037200D02*
X146380952Y-50084819D01*
X146380952Y-50084819D02*
X146285714Y-50084819D01*
X147571428Y-49418152D02*
X147571428Y-50084819D01*
X147333333Y-49037200D02*
X147095238Y-49751485D01*
X147095238Y-49751485D02*
X147714285Y-49751485D01*
X120333333Y-87019580D02*
X120285714Y-87067200D01*
X120285714Y-87067200D02*
X120142857Y-87114819D01*
X120142857Y-87114819D02*
X120047619Y-87114819D01*
X120047619Y-87114819D02*
X119904762Y-87067200D01*
X119904762Y-87067200D02*
X119809524Y-86971961D01*
X119809524Y-86971961D02*
X119761905Y-86876723D01*
X119761905Y-86876723D02*
X119714286Y-86686247D01*
X119714286Y-86686247D02*
X119714286Y-86543390D01*
X119714286Y-86543390D02*
X119761905Y-86352914D01*
X119761905Y-86352914D02*
X119809524Y-86257676D01*
X119809524Y-86257676D02*
X119904762Y-86162438D01*
X119904762Y-86162438D02*
X120047619Y-86114819D01*
X120047619Y-86114819D02*
X120142857Y-86114819D01*
X120142857Y-86114819D02*
X120285714Y-86162438D01*
X120285714Y-86162438D02*
X120333333Y-86210057D01*
X120666667Y-86114819D02*
X121285714Y-86114819D01*
X121285714Y-86114819D02*
X120952381Y-86495771D01*
X120952381Y-86495771D02*
X121095238Y-86495771D01*
X121095238Y-86495771D02*
X121190476Y-86543390D01*
X121190476Y-86543390D02*
X121238095Y-86591009D01*
X121238095Y-86591009D02*
X121285714Y-86686247D01*
X121285714Y-86686247D02*
X121285714Y-86924342D01*
X121285714Y-86924342D02*
X121238095Y-87019580D01*
X121238095Y-87019580D02*
X121190476Y-87067200D01*
X121190476Y-87067200D02*
X121095238Y-87114819D01*
X121095238Y-87114819D02*
X120809524Y-87114819D01*
X120809524Y-87114819D02*
X120714286Y-87067200D01*
X120714286Y-87067200D02*
X120666667Y-87019580D01*
X111333333Y-93784819D02*
X111000000Y-93308628D01*
X110761905Y-93784819D02*
X110761905Y-92784819D01*
X110761905Y-92784819D02*
X111142857Y-92784819D01*
X111142857Y-92784819D02*
X111238095Y-92832438D01*
X111238095Y-92832438D02*
X111285714Y-92880057D01*
X111285714Y-92880057D02*
X111333333Y-92975295D01*
X111333333Y-92975295D02*
X111333333Y-93118152D01*
X111333333Y-93118152D02*
X111285714Y-93213390D01*
X111285714Y-93213390D02*
X111238095Y-93261009D01*
X111238095Y-93261009D02*
X111142857Y-93308628D01*
X111142857Y-93308628D02*
X110761905Y-93308628D01*
X112285714Y-93784819D02*
X111714286Y-93784819D01*
X112000000Y-93784819D02*
X112000000Y-92784819D01*
X112000000Y-92784819D02*
X111904762Y-92927676D01*
X111904762Y-92927676D02*
X111809524Y-93022914D01*
X111809524Y-93022914D02*
X111714286Y-93070533D01*
X120333333Y-88784819D02*
X120000000Y-88308628D01*
X119761905Y-88784819D02*
X119761905Y-87784819D01*
X119761905Y-87784819D02*
X120142857Y-87784819D01*
X120142857Y-87784819D02*
X120238095Y-87832438D01*
X120238095Y-87832438D02*
X120285714Y-87880057D01*
X120285714Y-87880057D02*
X120333333Y-87975295D01*
X120333333Y-87975295D02*
X120333333Y-88118152D01*
X120333333Y-88118152D02*
X120285714Y-88213390D01*
X120285714Y-88213390D02*
X120238095Y-88261009D01*
X120238095Y-88261009D02*
X120142857Y-88308628D01*
X120142857Y-88308628D02*
X119761905Y-88308628D01*
X120666667Y-87784819D02*
X121285714Y-87784819D01*
X121285714Y-87784819D02*
X120952381Y-88165771D01*
X120952381Y-88165771D02*
X121095238Y-88165771D01*
X121095238Y-88165771D02*
X121190476Y-88213390D01*
X121190476Y-88213390D02*
X121238095Y-88261009D01*
X121238095Y-88261009D02*
X121285714Y-88356247D01*
X121285714Y-88356247D02*
X121285714Y-88594342D01*
X121285714Y-88594342D02*
X121238095Y-88689580D01*
X121238095Y-88689580D02*
X121190476Y-88737200D01*
X121190476Y-88737200D02*
X121095238Y-88784819D01*
X121095238Y-88784819D02*
X120809524Y-88784819D01*
X120809524Y-88784819D02*
X120714286Y-88737200D01*
X120714286Y-88737200D02*
X120666667Y-88689580D01*
X115998333Y-91284819D02*
X115665000Y-90808628D01*
X115426905Y-91284819D02*
X115426905Y-90284819D01*
X115426905Y-90284819D02*
X115807857Y-90284819D01*
X115807857Y-90284819D02*
X115903095Y-90332438D01*
X115903095Y-90332438D02*
X115950714Y-90380057D01*
X115950714Y-90380057D02*
X115998333Y-90475295D01*
X115998333Y-90475295D02*
X115998333Y-90618152D01*
X115998333Y-90618152D02*
X115950714Y-90713390D01*
X115950714Y-90713390D02*
X115903095Y-90761009D01*
X115903095Y-90761009D02*
X115807857Y-90808628D01*
X115807857Y-90808628D02*
X115426905Y-90808628D01*
X116379286Y-90380057D02*
X116426905Y-90332438D01*
X116426905Y-90332438D02*
X116522143Y-90284819D01*
X116522143Y-90284819D02*
X116760238Y-90284819D01*
X116760238Y-90284819D02*
X116855476Y-90332438D01*
X116855476Y-90332438D02*
X116903095Y-90380057D01*
X116903095Y-90380057D02*
X116950714Y-90475295D01*
X116950714Y-90475295D02*
X116950714Y-90570533D01*
X116950714Y-90570533D02*
X116903095Y-90713390D01*
X116903095Y-90713390D02*
X116331667Y-91284819D01*
X116331667Y-91284819D02*
X116950714Y-91284819D01*
X101666666Y-76324819D02*
X101666666Y-77039104D01*
X101666666Y-77039104D02*
X101619047Y-77181961D01*
X101619047Y-77181961D02*
X101523809Y-77277200D01*
X101523809Y-77277200D02*
X101380952Y-77324819D01*
X101380952Y-77324819D02*
X101285714Y-77324819D01*
X102047619Y-76324819D02*
X102666666Y-76324819D01*
X102666666Y-76324819D02*
X102333333Y-76705771D01*
X102333333Y-76705771D02*
X102476190Y-76705771D01*
X102476190Y-76705771D02*
X102571428Y-76753390D01*
X102571428Y-76753390D02*
X102619047Y-76801009D01*
X102619047Y-76801009D02*
X102666666Y-76896247D01*
X102666666Y-76896247D02*
X102666666Y-77134342D01*
X102666666Y-77134342D02*
X102619047Y-77229580D01*
X102619047Y-77229580D02*
X102571428Y-77277200D01*
X102571428Y-77277200D02*
X102476190Y-77324819D01*
X102476190Y-77324819D02*
X102190476Y-77324819D01*
X102190476Y-77324819D02*
X102095238Y-77277200D01*
X102095238Y-77277200D02*
X102047619Y-77229580D01*
X146666666Y-71849819D02*
X146666666Y-72564104D01*
X146666666Y-72564104D02*
X146619047Y-72706961D01*
X146619047Y-72706961D02*
X146523809Y-72802200D01*
X146523809Y-72802200D02*
X146380952Y-72849819D01*
X146380952Y-72849819D02*
X146285714Y-72849819D01*
X147619047Y-71849819D02*
X147142857Y-71849819D01*
X147142857Y-71849819D02*
X147095238Y-72326009D01*
X147095238Y-72326009D02*
X147142857Y-72278390D01*
X147142857Y-72278390D02*
X147238095Y-72230771D01*
X147238095Y-72230771D02*
X147476190Y-72230771D01*
X147476190Y-72230771D02*
X147571428Y-72278390D01*
X147571428Y-72278390D02*
X147619047Y-72326009D01*
X147619047Y-72326009D02*
X147666666Y-72421247D01*
X147666666Y-72421247D02*
X147666666Y-72659342D01*
X147666666Y-72659342D02*
X147619047Y-72754580D01*
X147619047Y-72754580D02*
X147571428Y-72802200D01*
X147571428Y-72802200D02*
X147476190Y-72849819D01*
X147476190Y-72849819D02*
X147238095Y-72849819D01*
X147238095Y-72849819D02*
X147142857Y-72802200D01*
X147142857Y-72802200D02*
X147095238Y-72754580D01*
X125430833Y-86784819D02*
X125097500Y-86308628D01*
X124859405Y-86784819D02*
X124859405Y-85784819D01*
X124859405Y-85784819D02*
X125240357Y-85784819D01*
X125240357Y-85784819D02*
X125335595Y-85832438D01*
X125335595Y-85832438D02*
X125383214Y-85880057D01*
X125383214Y-85880057D02*
X125430833Y-85975295D01*
X125430833Y-85975295D02*
X125430833Y-86118152D01*
X125430833Y-86118152D02*
X125383214Y-86213390D01*
X125383214Y-86213390D02*
X125335595Y-86261009D01*
X125335595Y-86261009D02*
X125240357Y-86308628D01*
X125240357Y-86308628D02*
X124859405Y-86308628D01*
X126287976Y-86118152D02*
X126287976Y-86784819D01*
X126049881Y-85737200D02*
X125811786Y-86451485D01*
X125811786Y-86451485D02*
X126430833Y-86451485D01*
X101666666Y-49084819D02*
X101666666Y-49799104D01*
X101666666Y-49799104D02*
X101619047Y-49941961D01*
X101619047Y-49941961D02*
X101523809Y-50037200D01*
X101523809Y-50037200D02*
X101380952Y-50084819D01*
X101380952Y-50084819D02*
X101285714Y-50084819D01*
X102666666Y-50084819D02*
X102095238Y-50084819D01*
X102380952Y-50084819D02*
X102380952Y-49084819D01*
X102380952Y-49084819D02*
X102285714Y-49227676D01*
X102285714Y-49227676D02*
X102190476Y-49322914D01*
X102190476Y-49322914D02*
X102095238Y-49370533D01*
X115900833Y-89519580D02*
X115853214Y-89567200D01*
X115853214Y-89567200D02*
X115710357Y-89614819D01*
X115710357Y-89614819D02*
X115615119Y-89614819D01*
X115615119Y-89614819D02*
X115472262Y-89567200D01*
X115472262Y-89567200D02*
X115377024Y-89471961D01*
X115377024Y-89471961D02*
X115329405Y-89376723D01*
X115329405Y-89376723D02*
X115281786Y-89186247D01*
X115281786Y-89186247D02*
X115281786Y-89043390D01*
X115281786Y-89043390D02*
X115329405Y-88852914D01*
X115329405Y-88852914D02*
X115377024Y-88757676D01*
X115377024Y-88757676D02*
X115472262Y-88662438D01*
X115472262Y-88662438D02*
X115615119Y-88614819D01*
X115615119Y-88614819D02*
X115710357Y-88614819D01*
X115710357Y-88614819D02*
X115853214Y-88662438D01*
X115853214Y-88662438D02*
X115900833Y-88710057D01*
X116281786Y-88710057D02*
X116329405Y-88662438D01*
X116329405Y-88662438D02*
X116424643Y-88614819D01*
X116424643Y-88614819D02*
X116662738Y-88614819D01*
X116662738Y-88614819D02*
X116757976Y-88662438D01*
X116757976Y-88662438D02*
X116805595Y-88710057D01*
X116805595Y-88710057D02*
X116853214Y-88805295D01*
X116853214Y-88805295D02*
X116853214Y-88900533D01*
X116853214Y-88900533D02*
X116805595Y-89043390D01*
X116805595Y-89043390D02*
X116234167Y-89614819D01*
X116234167Y-89614819D02*
X116853214Y-89614819D01*
X101666666Y-80084819D02*
X101666666Y-80799104D01*
X101666666Y-80799104D02*
X101619047Y-80941961D01*
X101619047Y-80941961D02*
X101523809Y-81037200D01*
X101523809Y-81037200D02*
X101380952Y-81084819D01*
X101380952Y-81084819D02*
X101285714Y-81084819D01*
X102095238Y-80180057D02*
X102142857Y-80132438D01*
X102142857Y-80132438D02*
X102238095Y-80084819D01*
X102238095Y-80084819D02*
X102476190Y-80084819D01*
X102476190Y-80084819D02*
X102571428Y-80132438D01*
X102571428Y-80132438D02*
X102619047Y-80180057D01*
X102619047Y-80180057D02*
X102666666Y-80275295D01*
X102666666Y-80275295D02*
X102666666Y-80370533D01*
X102666666Y-80370533D02*
X102619047Y-80513390D01*
X102619047Y-80513390D02*
X102047619Y-81084819D01*
X102047619Y-81084819D02*
X102666666Y-81084819D01*
D12*
%TO.C,C4*%
X125683335Y-82640000D02*
X125451665Y-82640000D01*
X125683335Y-83360000D02*
X125451665Y-83360000D01*
%TO.C,C1*%
X111615835Y-90140000D02*
X111384165Y-90140000D01*
X111615835Y-90860000D02*
X111384165Y-90860000D01*
%TO.C,J4*%
X145670000Y-50630000D02*
X147000000Y-50630000D01*
X145670000Y-51960000D02*
X145670000Y-50630000D01*
X145670000Y-53230000D02*
X145670000Y-65990000D01*
X145670000Y-53230000D02*
X148330000Y-53230000D01*
X145670000Y-65990000D02*
X148330000Y-65990000D01*
X148330000Y-53230000D02*
X148330000Y-65990000D01*
%TO.C,C3*%
X120615835Y-85140000D02*
X120384165Y-85140000D01*
X120615835Y-85860000D02*
X120384165Y-85860000D01*
%TO.C,R1*%
X111332379Y-94120000D02*
X111667621Y-94120000D01*
X111332379Y-94880000D02*
X111667621Y-94880000D01*
%TO.C,R3*%
X120332379Y-89120000D02*
X120667621Y-89120000D01*
X120332379Y-89880000D02*
X120667621Y-89880000D01*
%TO.C,R2*%
X115997379Y-91620000D02*
X116332621Y-91620000D01*
X115997379Y-92380000D02*
X116332621Y-92380000D01*
%TO.C,J3*%
X100670000Y-73270000D02*
X100670000Y-65590000D01*
X103330000Y-65590000D02*
X100670000Y-65590000D01*
X103330000Y-73270000D02*
X100670000Y-73270000D01*
X103330000Y-73270000D02*
X103330000Y-65590000D01*
X103330000Y-74540000D02*
X103330000Y-75870000D01*
X103330000Y-75870000D02*
X102000000Y-75870000D01*
%TO.C,J5*%
X145670000Y-73395000D02*
X147000000Y-73395000D01*
X145670000Y-74725000D02*
X145670000Y-73395000D01*
X145670000Y-75995000D02*
X145670000Y-78595000D01*
X145670000Y-75995000D02*
X148330000Y-75995000D01*
X145670000Y-78595000D02*
X148330000Y-78595000D01*
X148330000Y-75995000D02*
X148330000Y-78595000D01*
%TO.C,R4*%
X125429879Y-87120000D02*
X125765121Y-87120000D01*
X125429879Y-87880000D02*
X125765121Y-87880000D01*
%TO.C,J1*%
X100670000Y-50630000D02*
X102000000Y-50630000D01*
X100670000Y-51960000D02*
X100670000Y-50630000D01*
X100670000Y-53230000D02*
X100670000Y-60910000D01*
X100670000Y-53230000D02*
X103330000Y-53230000D01*
X100670000Y-60910000D02*
X103330000Y-60910000D01*
X103330000Y-53230000D02*
X103330000Y-60910000D01*
%TO.C,C2*%
X116183335Y-87640000D02*
X115951665Y-87640000D01*
X116183335Y-88360000D02*
X115951665Y-88360000D01*
%TO.C,J2*%
X100670000Y-81630000D02*
X102000000Y-81630000D01*
X100670000Y-82960000D02*
X100670000Y-81630000D01*
X100670000Y-84230000D02*
X100670000Y-91910000D01*
X100670000Y-84230000D02*
X103330000Y-84230000D01*
X100670000Y-91910000D02*
X103330000Y-91910000D01*
X103330000Y-84230000D02*
X103330000Y-91910000D01*
%TD*%
M02*
