%TF.GenerationSoftware,KiCad,Pcbnew,8.0.8*%
%TF.CreationDate,2025-02-10T02:06:15-08:00*%
%TF.ProjectId,514_FinalProject,3531345f-4669-46e6-916c-50726f6a6563,rev?*%
%TF.SameCoordinates,Original*%
%TF.FileFunction,Copper,L1,Top*%
%TF.FilePolarity,Positive*%
%FSLAX46Y46*%
G04 Gerber Fmt 4.6, Leading zero omitted, Abs format (unit mm)*
G04 Created by KiCad (PCBNEW 8.0.8) date 2025-02-10 02:06:15*
%MOMM*%
%LPD*%
G01*
G04 APERTURE LIST*
G04 Aperture macros list*
%AMRoundRect*
0 Rectangle with rounded corners*
0 $1 Rounding radius*
0 $2 $3 $4 $5 $6 $7 $8 $9 X,Y pos of 4 corners*
0 Add a 4 corners polygon primitive as box body*
4,1,4,$2,$3,$4,$5,$6,$7,$8,$9,$2,$3,0*
0 Add four circle primitives for the rounded corners*
1,1,$1+$1,$2,$3*
1,1,$1+$1,$4,$5*
1,1,$1+$1,$6,$7*
1,1,$1+$1,$8,$9*
0 Add four rect primitives between the rounded corners*
20,1,$1+$1,$2,$3,$4,$5,0*
20,1,$1+$1,$4,$5,$6,$7,0*
20,1,$1+$1,$6,$7,$8,$9,0*
20,1,$1+$1,$8,$9,$2,$3,0*%
G04 Aperture macros list end*
%TA.AperFunction,SMDPad,CuDef*%
%ADD10RoundRect,0.155000X0.212500X0.155000X-0.212500X0.155000X-0.212500X-0.155000X0.212500X-0.155000X0*%
%TD*%
%TA.AperFunction,ComponentPad*%
%ADD11R,1.700000X1.700000*%
%TD*%
%TA.AperFunction,ComponentPad*%
%ADD12O,1.700000X1.700000*%
%TD*%
%TA.AperFunction,SMDPad,CuDef*%
%ADD13RoundRect,0.160000X-0.197500X-0.160000X0.197500X-0.160000X0.197500X0.160000X-0.197500X0.160000X0*%
%TD*%
%TA.AperFunction,Conductor*%
%ADD14C,0.200000*%
%TD*%
G04 APERTURE END LIST*
D10*
%TO.P,C4,1*%
%TO.N,GND*%
X126135000Y-83000000D03*
%TO.P,C4,2*%
%TO.N,Net-(J2-Pin_1)*%
X125000000Y-83000000D03*
%TD*%
%TO.P,C1,1*%
%TO.N,GND*%
X112067500Y-90500000D03*
%TO.P,C1,2*%
%TO.N,Net-(J2-Pin_4)*%
X110932500Y-90500000D03*
%TD*%
D11*
%TO.P,J4,1,Pin_1*%
%TO.N,Net-(J1-Pin_1)*%
X147000000Y-51960000D03*
D12*
%TO.P,J4,2,Pin_2*%
%TO.N,Net-(J1-Pin_2)*%
X147000000Y-54500000D03*
%TO.P,J4,3,Pin_3*%
%TO.N,Net-(J1-Pin_3)*%
X147000000Y-57040000D03*
%TO.P,J4,4,Pin_4*%
%TO.N,Net-(J1-Pin_4)*%
X147000000Y-59580000D03*
%TO.P,J4,5,Pin_5*%
%TO.N,Net-(J3-Pin_2)*%
X147000000Y-62120000D03*
%TO.P,J4,6,Pin_6*%
%TO.N,Net-(J3-Pin_3)*%
X147000000Y-64660000D03*
%TD*%
D10*
%TO.P,C3,1*%
%TO.N,GND*%
X121067500Y-85500000D03*
%TO.P,C3,2*%
%TO.N,Net-(J2-Pin_2)*%
X119932500Y-85500000D03*
%TD*%
D13*
%TO.P,R1,1*%
%TO.N,Net-(J2-Pin_4)*%
X110902500Y-94500000D03*
%TO.P,R1,2*%
%TO.N,GND*%
X112097500Y-94500000D03*
%TD*%
%TO.P,R3,1*%
%TO.N,Net-(J2-Pin_2)*%
X119902500Y-89500000D03*
%TO.P,R3,2*%
%TO.N,GND*%
X121097500Y-89500000D03*
%TD*%
%TO.P,R2,1*%
%TO.N,Net-(J2-Pin_3)*%
X115567500Y-92000000D03*
%TO.P,R2,2*%
%TO.N,GND*%
X116762500Y-92000000D03*
%TD*%
D11*
%TO.P,J3,1,Pin_1*%
%TO.N,+3V3*%
X102000000Y-74540000D03*
D12*
%TO.P,J3,2,Pin_2*%
%TO.N,Net-(J3-Pin_2)*%
X102000000Y-72000000D03*
%TO.P,J3,3,Pin_3*%
%TO.N,Net-(J3-Pin_3)*%
X102000000Y-69460000D03*
%TO.P,J3,4,Pin_4*%
%TO.N,GND*%
X102000000Y-66920000D03*
%TD*%
D11*
%TO.P,J5,1,Pin_1*%
%TO.N,+3V3*%
X147000000Y-74725000D03*
D12*
%TO.P,J5,2,Pin_2*%
%TO.N,GND*%
X147000000Y-77265000D03*
%TD*%
D13*
%TO.P,R4,1*%
%TO.N,Net-(J2-Pin_1)*%
X125000000Y-87500000D03*
%TO.P,R4,2*%
%TO.N,GND*%
X126195000Y-87500000D03*
%TD*%
D11*
%TO.P,J1,1,Pin_1*%
%TO.N,Net-(J1-Pin_1)*%
X102000000Y-51960000D03*
D12*
%TO.P,J1,2,Pin_2*%
%TO.N,Net-(J1-Pin_2)*%
X102000000Y-54500000D03*
%TO.P,J1,3,Pin_3*%
%TO.N,Net-(J1-Pin_3)*%
X102000000Y-57040000D03*
%TO.P,J1,4,Pin_4*%
%TO.N,Net-(J1-Pin_4)*%
X102000000Y-59580000D03*
%TD*%
D10*
%TO.P,C2,1*%
%TO.N,GND*%
X116635000Y-88000000D03*
%TO.P,C2,2*%
%TO.N,Net-(J2-Pin_3)*%
X115500000Y-88000000D03*
%TD*%
D11*
%TO.P,J2,1,Pin_1*%
%TO.N,Net-(J2-Pin_1)*%
X102000000Y-82960000D03*
D12*
%TO.P,J2,2,Pin_2*%
%TO.N,Net-(J2-Pin_2)*%
X102000000Y-85500000D03*
%TO.P,J2,3,Pin_3*%
%TO.N,Net-(J2-Pin_3)*%
X102000000Y-88040000D03*
%TO.P,J2,4,Pin_4*%
%TO.N,Net-(J2-Pin_4)*%
X102000000Y-90580000D03*
%TD*%
D14*
%TO.N,Net-(J2-Pin_4)*%
X110932500Y-90500000D02*
X110932500Y-94470000D01*
X110932500Y-94470000D02*
X110902500Y-94500000D01*
X110852500Y-90580000D02*
X110932500Y-90500000D01*
X102000000Y-90580000D02*
X110852500Y-90580000D01*
%TO.N,GND*%
X116762500Y-92000000D02*
X132265000Y-92000000D01*
X121097500Y-89500000D02*
X134765000Y-89500000D01*
X112097500Y-90530000D02*
X112067500Y-90500000D01*
X116762500Y-92000000D02*
X116762500Y-88127500D01*
X132265000Y-92000000D02*
X134765000Y-89500000D01*
X112097500Y-94500000D02*
X112097500Y-90530000D01*
X126195000Y-87500000D02*
X136500000Y-87500000D01*
X112097500Y-90530000D02*
X112530000Y-90530000D01*
X116762500Y-88127500D02*
X116635000Y-88000000D01*
X121097500Y-89500000D02*
X121097500Y-85530000D01*
X126135000Y-87440000D02*
X126195000Y-87500000D01*
X121097500Y-85530000D02*
X121067500Y-85500000D01*
X126135000Y-83000000D02*
X126135000Y-87440000D01*
X136500000Y-87500000D02*
X136632500Y-87632500D01*
X129765000Y-94500000D02*
X132265000Y-92000000D01*
X134765000Y-89500000D02*
X136632500Y-87632500D01*
X141265000Y-83000000D02*
X147000000Y-77265000D01*
X136632500Y-87632500D02*
X141265000Y-83000000D01*
X112097500Y-94500000D02*
X129765000Y-94500000D01*
X121097500Y-85530000D02*
X121097500Y-85597500D01*
%TO.N,Net-(J2-Pin_3)*%
X115500000Y-88000000D02*
X115500000Y-91932500D01*
X115460000Y-88040000D02*
X115500000Y-88000000D01*
X102000000Y-88040000D02*
X115460000Y-88040000D01*
X115500000Y-91932500D02*
X115567500Y-92000000D01*
%TO.N,Net-(J2-Pin_2)*%
X119902500Y-85962500D02*
X119902500Y-89500000D01*
X119932500Y-85932500D02*
X119902500Y-85962500D01*
X119932500Y-85500000D02*
X119932500Y-85932500D01*
X102000000Y-85500000D02*
X119932500Y-85500000D01*
%TO.N,Net-(J2-Pin_1)*%
X124960000Y-82960000D02*
X125000000Y-83000000D01*
X125000000Y-83000000D02*
X125000000Y-87500000D01*
X102000000Y-82960000D02*
X124960000Y-82960000D01*
%TO.N,Net-(J1-Pin_3)*%
X102000000Y-57040000D02*
X147000000Y-57040000D01*
%TO.N,Net-(J1-Pin_4)*%
X102000000Y-59580000D02*
X147000000Y-59580000D01*
%TO.N,Net-(J1-Pin_1)*%
X102000000Y-51960000D02*
X147000000Y-51960000D01*
%TO.N,Net-(J1-Pin_2)*%
X147000000Y-54500000D02*
X102000000Y-54500000D01*
%TO.N,Net-(J3-Pin_3)*%
X111500000Y-69500000D02*
X110500000Y-69500000D01*
X113000000Y-68000000D02*
X111500000Y-69500000D01*
X147000000Y-64660000D02*
X114340000Y-64660000D01*
X110460000Y-69460000D02*
X102000000Y-69460000D01*
X110500000Y-69500000D02*
X110460000Y-69460000D01*
X113000000Y-66000000D02*
X113000000Y-68000000D01*
X114340000Y-64660000D02*
X113000000Y-66000000D01*
%TO.N,Net-(J3-Pin_2)*%
X98500000Y-64500000D02*
X100880000Y-62120000D01*
X100880000Y-62120000D02*
X147000000Y-62120000D01*
X102000000Y-72000000D02*
X98500000Y-68500000D01*
X98500000Y-68500000D02*
X98500000Y-64500000D01*
%TO.N,+3V3*%
X146815000Y-74540000D02*
X147000000Y-74725000D01*
X102000000Y-74540000D02*
X146815000Y-74540000D01*
%TD*%
M02*
